<?xml version="1.0" encoding="UTF-8"?><svg id="uuid-e29d571c-6bea-4f8d-8b55-bc60a6e37869" xmlns="http://www.w3.org/2000/svg" viewBox="0 0 41.62 46.61"><g id="uuid-941e35a2-bb01-4098-8517-17d5109e69a4"><path d="M41.62,18.31c0,2.54-1.27,4.89-3.4,6.27-.14.09-.3.13-.45.13-.27,0-.54-.13-.7-.38-.25-.39-.14-.9.25-1.15,1.65-1.07,2.64-2.89,2.64-4.87,0-3.21-2.61-5.83-5.83-5.83-.28,0-.53.02-.75.05-.22.03-.45-.03-.63-.16-.18-.14-.29-.34-.32-.56-.34-2.93-2.83-5.15-5.79-5.15-.31,0-.61.02-.9.07-.42.07-.83-.21-.93-.62-.64-2.61-2.97-4.44-5.66-4.44-2.4,0-4.59,1.51-5.44,3.75-.14.38-.55.6-.95.52-.35-.07-.72-.11-1.11-.11-3.21,0-5.83,2.61-5.83,5.83,0,.15,0,.3.02.44.02.36-.19.68-.52.82-2.22.88-3.65,3-3.65,5.4,0,1.98.99,3.8,2.64,4.87.39.25.5.77.25,1.15-.25.39-.77.5-1.15.25-2.13-1.38-3.4-3.72-3.4-6.27,0-2.89,1.62-5.46,4.16-6.71.03-4.11,3.38-7.44,7.49-7.44.26,0,.51.01.76.04,1.24-2.54,3.86-4.2,6.73-4.2,3.21,0,6.02,2.02,7.07,5.01.14,0,.28-.01.42-.01,3.54,0,6.55,2.45,7.31,5.83.06,0,.12,0,.18,0,4.13,0,7.49,3.36,7.49,7.49ZM36.17,34.51c-.01.05-.02.11-.04.16-1.42,5.62-5.84,10.03-11.46,11.45-.07.03-.14.05-.22.06-1.17.28-2.38.44-3.63.44s-2.47-.16-3.63-.44c-.08,0-.15-.03-.22-.06-5.62-1.41-10.04-5.83-11.46-11.45-.02-.05-.03-.11-.04-.16-.29-1.19-.46-2.43-.46-3.71s.17-2.52.46-3.71c.01-.05.02-.11.04-.16,1.42-5.61,5.83-10.02,11.44-11.44.05-.02.1-.03.15-.04,1.2-.29,2.44-.46,3.72-.46s2.53.17,3.73.46c.05.01.1.02.14.04,5.61,1.42,10.02,5.83,11.44,11.44.02.05.03.11.04.16.29,1.19.46,2.43.46,3.71s-.17,2.52-.46,3.71ZM20.81,35.79c1.64,0,3.24-.08,4.78-.21.13-1.54.21-3.14.21-4.78,0-.9-.03-1.78-.07-2.64-1.11-.31-1.97-1.18-2.29-2.29-2.44-.12-5.02-.07-7.42.14-.13,1.54-.21,3.14-.21,4.79,0,.9.03,1.78.07,2.64,1.11.31,1.97,1.18,2.29,2.29.86.04,1.74.07,2.64.07ZM16.65,36.62c0-.92-.75-1.66-1.66-1.66s-1.66.75-1.66,1.66.75,1.66,1.66,1.66,1.66-.75,1.66-1.66ZM12.05,35.08c.44-.83,1.22-1.46,2.16-1.68-.04-.85-.07-1.71-.07-2.59,0-1.58.08-3.12.2-4.62-2.91.36-5.43.94-7.38,1.7-.2.94-.31,1.92-.31,2.92s.11,1.98.31,2.92c1.4.54,3.14,1.01,5.09,1.35ZM24.97,24.97c0,.92.75,1.66,1.66,1.66s1.66-.75,1.66-1.66-.75-1.66-1.66-1.66-1.66.75-1.66,1.66ZM27.47,30.8c0,1.58-.08,3.12-.2,4.62,2.91-.36,5.43-.94,7.38-1.7.2-.94.31-1.92.31-2.92s-.11-1.98-.31-2.92c-1.4-.54-3.14-1.01-5.09-1.35-.44.83-1.22,1.46-2.16,1.68.04.85.07,1.71.07,2.59ZM25.7,17.54c.39,1.22.73,2.61,1,4.11,1.78.04,3.21,1.47,3.25,3.25,1.5.27,2.89.61,4.11,1-1.43-3.87-4.5-6.93-8.36-8.36ZM20.81,16.65c-1,0-1.98.11-2.92.31-.75,1.95-1.33,4.47-1.69,7.37,2.35-.19,4.84-.23,7.21-.12.22-.94.85-1.72,1.68-2.17-.35-1.95-.81-3.68-1.35-5.09-.94-.2-1.92-.31-2.93-.31ZM7.55,25.91c1.96-.63,4.32-1.11,6.95-1.42.31-2.63.79-4.99,1.42-6.95-3.87,1.43-6.94,4.5-8.37,8.37ZM15.91,44.06c-.39-1.22-.73-2.61-1-4.11-1.78-.04-3.21-1.47-3.25-3.25-1.5-.27-2.89-.61-4.11-1,1.43,3.87,4.5,6.93,8.36,8.36ZM20.81,44.95c1,0,1.98-.11,2.92-.31.76-1.95,1.34-4.47,1.69-7.38-1.5.12-3.04.2-4.62.2-.88,0-1.75-.03-2.59-.07-.22.94-.85,1.72-1.68,2.16.35,1.95.81,3.68,1.35,5.09.94.2,1.92.31,2.93.31ZM34.07,35.69c-1.96.63-4.32,1.11-6.95,1.42-.31,2.63-.79,4.99-1.42,6.95,3.87-1.43,6.94-4.5,8.37-8.37Z" style="fill:#575756;"/></g></svg>