<?xml version="1.0" encoding="UTF-8"?><svg id="uuid-efdcd2d1-436f-48b6-a3ed-89061feba34f" xmlns="http://www.w3.org/2000/svg" xmlns:xlink="http://www.w3.org/1999/xlink" viewBox="0 0 22.01 41"><defs><clipPath id="uuid-44c46315-b423-4383-97f6-deb7304e66b5"><rect width="22" height="41" style="fill:none;"/></clipPath></defs><g id="uuid-fa8a78d7-9307-4e8b-a19a-1810f6991a94"><g style="clip-path:url(#uuid-44c46315-b423-4383-97f6-deb7304e66b5);"><path d="M22,21.14c0-5.86-3.18-11.6-3.32-11.85-.12-.2-.33-.33-.56-.33h-1.67l.27-1.29s.08.01.12.01c1.43,0,2.59-1.15,2.59-2.56s-1.16-2.56-2.59-2.56-2.59,1.15-2.59,2.56c0,.92.49,1.72,1.23,2.17l-.34,1.67h-2.83c-.36,0-.65.29-.65.64s.29.64.65.64h2.58l-.52,2.6c-.83.1-1.35.44-1.77.71-.13.09-.25.17-.38.24L8.33,1.36c-.25-.81-1-1.36-1.86-1.36H.65c-.36,0-.65.29-.65.64v2.56c0,.35.29.64.65.64h4.39l2.81,9.03c-.22-.04-.46-.06-.73-.06-1.16,0-1.79.42-2.3.75-.45.29-.81.53-1.58.53-.23,0-.41-.03-.57-.06.63-1.79,1.3-3.18,1.61-3.79h.91c.36,0,.65-.29.65-.64s-.29-.64-.65-.64h-1.29c-.23,0-.45.13-.56.33C3.19,9.54,0,15.27,0,21.14s4.45,9.76,9.06,10.69v4.24c-2.65.56-4.53,2.24-4.53,4.29,0,.35.29.64.65.64h11.65c.36,0,.65-.29.65-.64,0-2.04-1.88-3.73-4.53-4.29v-4.24c4.61-.94,9.06-5.06,9.06-10.69h0ZM16.82,3.84c.71,0,1.29.58,1.29,1.28s-.58,1.28-1.29,1.28-1.29-.58-1.29-1.28.58-1.28,1.29-1.28ZM17.73,10.25c.31.6.98,1.99,1.61,3.79-.16.03-.34.06-.58.06-.78,0-1.13-.24-1.59-.53-.38-.25-.83-.54-1.53-.68l.54-2.63h1.54ZM6.13,3.02c-.08-.27-.34-.45-.62-.45H1.29v-1.28h5.18c.28,0,.54.18.62.45l3.84,12.36c-.72-.01-1.08-.24-1.51-.53L6.13,3.02ZM1.29,21.14c0-2.04.43-4.1.96-5.88.3.08.62.12.97.12,1.16,0,1.79-.42,2.3-.75.45-.29.81-.53,1.58-.53s1.13.24,1.58.53c.5.33,1.13.75,2.3.75s1.79-.42,2.3-.75c.45-.29.81-.53,1.59-.53s1.13.24,1.59.53c.5.33,1.13.75,2.3.75.36,0,.67-.04.98-.12.54,1.79.96,3.84.96,5.88,0,5.66-5.12,9.61-9.71,9.61S1.28,26.8,1.28,21.14h.01ZM16.07,39.72H5.93c.5-1.44,2.61-2.56,5.07-2.56s4.57,1.12,5.07,2.56ZM11.65,35.89c-.21-.01-.43-.02-.65-.02s-.43,0-.65.02v-3.9c.21.01.43.03.65.03s.43-.02.65-.03v3.9Z" style="fill:#575756;"/><path d="M9.71,20.5v-1.28c0-1.06-.87-1.92-1.94-1.92h-1.29c-1.07,0-1.94.86-1.94,1.92v1.28c0,1.06.87,1.92,1.94,1.92h1.29c1.07,0,1.94-.86,1.94-1.92ZM5.82,20.5v-1.28c0-.35.29-.64.65-.64h1.29c.36,0,.65.29.65.64v1.28c0,.35-.29.64-.65.64h-1.29c-.36,0-.65-.29-.65-.64Z" style="fill:#575756;"/><path d="M12.94,26.27v-1.28c0-1.06-.87-1.92-1.94-1.92h-1.29c-1.07,0-1.94.86-1.94,1.92v1.28c0,1.06.87,1.92,1.94,1.92h1.29c1.07,0,1.94-.86,1.94-1.92ZM9.06,26.27v-1.28c0-.35.29-.64.65-.64h1.29c.36,0,.65.29.65.64v1.28c0,.35-.29.64-.65.64h-1.29c-.36,0-.65-.29-.65-.64Z" style="fill:#575756;"/><path d="M14.81,23.41c.38.37.87.56,1.37.56s1-.19,1.37-.56l.91-.9c.37-.37.57-.85.57-1.36s-.2-.99-.57-1.36l-.91-.91c-.76-.75-1.99-.75-2.74,0l-.91.9c-.37.37-.57.85-.57,1.36s.2.99.57,1.36l.91.9h0ZM14.81,20.69l.91-.9c.13-.13.29-.19.46-.19s.33.06.46.19l.91.91c.12.12.19.28.19.45s-.06.33-.19.45l-.91.9c-.25.25-.66.25-.91,0l-.91-.9c-.12-.12-.19-.28-.19-.45s.06-.33.19-.45h0Z" style="fill:#575756;"/><path d="M12.29,17.3h-1.29v1.28h1.29v-1.28Z" style="fill:#575756;"/><path d="M5.82,23.7h-1.29v1.28h1.29v-1.28Z" style="fill:#575756;"/><path d="M16.18,25.62h-1.29v1.28h1.29v-1.28Z" style="fill:#575756;"/><path d="M16.18,16.02h-1.29v1.28h1.29v-1.28Z" style="fill:#575756;"/></g></g></svg>