<?xml version="1.0" encoding="UTF-8"?><svg id="uuid-c64d1f97-8662-458b-8374-127fa929ea07" xmlns="http://www.w3.org/2000/svg" viewBox="0 0 159.61 177.19"><g id="uuid-f8147bab-7aef-4fca-89f5-33b0a317ce69"><polygon points="29.55 153.97 141.62 153.97 151.43 129.14 142.13 129.14 142.13 131.74 147.61 131.74 139.85 151.37 31.38 151.37 24.44 131.74 29.96 131.74 29.96 129.14 20.77 129.14 21.39 130.87 29.55 153.97" style="fill:#57524d;"/><path d="M18.05,157.25v-.28c0-1.55,1.24-2.79,2.79-2.79h3.1l-11.86-32.26H2.76v2.6h7.52l9.96,27.1c-2.7.3-4.78,2.58-4.79,5.35v.29c0,2.98,2.41,5.38,5.39,5.39h127.11v-2.6H20.84c-1.55,0-2.79-1.25-2.79-2.79Z" style="fill:#57524d;"/><path d="M25.07,164.55c-3.49,0-6.33,2.83-6.33,6.32s2.83,6.32,6.33,6.32c3.49,0,6.32-2.83,6.32-6.32,0-3.49-2.83-6.32-6.32-6.32ZM25.07,174.6c-2.06,0-3.72-1.67-3.73-3.73,0-2.06,1.67-3.72,3.73-3.73,2.06,0,3.72,1.67,3.73,3.73,0,2.06-1.67,3.73-3.73,3.73Z" style="fill:#57524d;"/><path d="M139.01,164.55c-3.49,0-6.32,2.83-6.32,6.32s2.83,6.32,6.32,6.32c3.5,0,6.33-2.83,6.33-6.32,0-3.49-2.83-6.32-6.33-6.32ZM139.01,174.6c-2.06,0-3.72-1.66-3.72-3.73,0-2.06,1.67-3.72,3.72-3.73,2.06,0,3.73,1.67,3.73,3.73,0,2.06-1.67,3.73-3.73,3.73Z" style="fill:#57524d;"/><polyline points="144.49 66.66 138.17 73.29 146.37 73.41 145.16 76.76 148.95 78.83" style="fill:none; stroke:#59668d; stroke-linecap:round; stroke-linejoin:round; stroke-width:1.08px;"/><polyline points="88.6 3.92 82.29 10.54 90.48 10.67 89.27 14.02 93.07 16.09" style="fill:none; stroke:#59668d; stroke-linecap:round; stroke-linejoin:round; stroke-width:1.08px;"/><line x1="120.25" y1="7.79" x2="120.25" y2="35.44" style="fill:none; stroke:#59668d; stroke-linecap:round; stroke-miterlimit:10; stroke-width:.91px;"/><line x1="144.55" y1="33.31" x2="95.64" y2="33.31" style="fill:none; stroke:#59668d; stroke-linecap:round; stroke-miterlimit:10; stroke-width:.91px;"/><path d="M141.27,19.27c-4.53,2.18-12.5,3.63-21.59,3.63s-17.07-1.45-21.6-3.63" style="fill:none; stroke:#59668d; stroke-linecap:round; stroke-miterlimit:10; stroke-width:.91px;"/><path d="M98.22,46.27c-2.58-3.98-4.07-8.72-4.07-13.81,0-14.04,11.38-25.42,25.42-25.42s25.42,11.38,25.42,25.42c0,1.04-.06,2.07-.18,3.08" style="fill:none; stroke:#59668d; stroke-linecap:round; stroke-miterlimit:10; stroke-width:.91px;"/><path d="M106.31,43.71c-.97-3.39-1.52-7.21-1.52-11.25,0-14.04,6.62-25.42,14.78-25.42s14.78,11.38,14.78,25.42c0,1.61-.09,3.18-.25,4.7" style="fill:none; stroke:#59668d; stroke-linecap:round; stroke-miterlimit:10; stroke-width:.91px;"/><path d="M131.78,44.08l18.28-7.15c.86-.33,1.8-.39,2.68-.15l4.92,1.3c1.82.48,2.03,2.99.3,3.76l-14.36,6.53" style="fill:none; stroke:#57524d; stroke-linecap:round; stroke-linejoin:round; stroke-width:.91px;"/><path d="M128.95,54.89l-12.95,6.07c-3.46,1.28-5.56.92-7.04-.93l-8.56-11.39,5.79-1.36,7.16,4.43,12.67-5.1" style="fill:none; stroke:#57524d; stroke-linecap:round; stroke-linejoin:round; stroke-width:.91px;"/><polyline points="132.75 53.37 129.82 69.24 135.53 65.54 143.56 47.19" style="fill:none; stroke:#57524d; stroke-linecap:round; stroke-linejoin:round; stroke-width:.91px;"/><polyline points="137.27 41.67 122.25 38.56 116.46 39.93 126.03 46.61" style="fill:none; stroke:#57524d; stroke-linecap:round; stroke-linejoin:round; stroke-width:.91px;"/><line x1="135.75" y1="47.67" x2="147.88" y2="42.46" style="fill:none; stroke:#57524d; stroke-dasharray:.67 2.22; stroke-linecap:round; stroke-linejoin:round; stroke-width:.91px;"/><line x1="117.26" y1="55.6" x2="131.82" y2="49.35" style="fill:none; stroke:#57524d; stroke-dasharray:.67 2.22; stroke-linecap:round; stroke-linejoin:round; stroke-width:.91px;"/><path d="M147.12,21.72c.46,1.18.85,2.4,1.16,3.66" style="fill:none; stroke:#59668d; stroke-linecap:round; stroke-miterlimit:10; stroke-width:.91px;"/><path d="M136.48,8.21c3.8,2.66,6.95,6.19,9.16,10.3" style="fill:none; stroke:#59668d; stroke-linecap:round; stroke-miterlimit:10; stroke-width:.91px;"/><path d="M138.57,93.21c2.41-2.31,5.59-4.1,5.59-4.1-2.16-1.02-4.21-.51-6.61,0,0,0,3.46-4.41,5.67-6.93-4.72.31-8.81,4.72-8.81,4.72-.19-2.98-.98-5.95-2.22-9.26-1.24,3.3-2.03,6.27-2.22,9.26,0,0-4.09-4.41-8.81-4.72,2.2,2.52,5.67,6.93,5.67,6.93-2.41-.51-4.45-1.02-6.61,0,0,0,5.04,2.83,7.24,5.98" style="fill:none; stroke:#57524d; stroke-linecap:round; stroke-linejoin:round; stroke-width:1.08px;"/><path d="M119.36,117.6c1.07,0,2.08.5,2.4.65.52.24,1.11.38,1.72.38s1.21-.14,1.73-.38c1.64-.76,3.58-.61,5.01.49,2.64,2.03,4.34,5.21,4.34,8.8,0,3.23-2.16,6.59-4.36,8.61-.62.57-1.3.57-1.97.6-.99.04-1.99-.17-3.04-.83-.56-.35-1-.4-1.71-.4s-1.18.26-1.73.63c-2.61,1.77-4.51-.56-4.51-.56" style="fill:none; stroke:#57524d; stroke-linecap:round; stroke-linejoin:round; stroke-width:1.08px;"/><path d="M124.72,110.12c-1.48,1.48-1.25,4.1-1.25,4.1,0,0,2.62.23,4.1-1.25,1.48-1.48,1.25-4.1,1.25-4.1,0,0-2.62-.23-4.1,1.25Z" style="fill:none; stroke:#57524d; stroke-linecap:round; stroke-linejoin:round; stroke-width:1.08px;"/><path d="M109.58,98.25s-3.88-.33-6.07,1.86c-2.19,2.19-1.86,6.07-1.86,6.07,0,0,3.88.33,6.07-1.86" style="fill:none; stroke:#57524d; stroke-linecap:round; stroke-linejoin:round; stroke-width:1.08px;"/><path d="M108.99,102.62c2.58-.98,3.83,1.39,4.05,2.87l1.05,7.34c.31,2.16,1.39,4.13,3.03,5.57,2.42,2.14,3.9,5.32,3.75,8.83-.17,4.09-2.64,7.39-6.11,9.18-1.11.57-2.76.51-3.5.22-.48-.19-.99-.34-1.54-.34s-1.04.24-1.54.34c-.68.14-2.96.36-4.07-.22-1.8-.93-3.18-2.26-4.12-3.91" style="fill:none; stroke:#57524d; stroke-linecap:round; stroke-linejoin:round; stroke-width:1.08px;"/><path d="M109.57,102.26c.1-.63.94-3.71-.58-7.27" style="fill:none; stroke:#57524d; stroke-linecap:round; stroke-linejoin:round; stroke-width:1.08px;"/><path d="M123.11,117.6c0-2.15.54-4.83-1.61-6.98" style="fill:none; stroke:#57524d; stroke-linecap:round; stroke-linejoin:round; stroke-width:1.08px;"/><line x1="140.66" y1="98.45" x2="130.7" y2="106.41" style="fill:none; stroke:#59668d; stroke-linecap:round; stroke-miterlimit:10; stroke-width:1.08px;"/><line x1="145.95" y1="106.31" x2="132.83" y2="116.79" style="fill:none; stroke:#59668d; stroke-linecap:round; stroke-miterlimit:10; stroke-width:1.08px;"/><line x1="148.15" y1="116.14" x2="137.64" y2="124.53" style="fill:none; stroke:#59668d; stroke-linecap:round; stroke-miterlimit:10; stroke-width:1.08px;"/><line x1="124.85" y1="97.6" x2="148.15" y2="116.21" style="fill:none; stroke:#59668d; stroke-linecap:round; stroke-miterlimit:10; stroke-width:1.08px;"/><line x1="133.58" y1="116.65" x2="142.87" y2="124.07" style="fill:none; stroke:#59668d; stroke-linecap:round; stroke-miterlimit:10; stroke-width:1.08px;"/><path d="M132.05,136.35c9.13,0,16.52-9.24,16.52-20.63s-7.4-20.63-16.52-20.63c-6.25,0-11.69,4.33-14.5,10.73" style="fill:none; stroke:#59668d; stroke-linecap:round; stroke-linejoin:round; stroke-width:1.08px;"/><path d="M51.7,1.52h6.35c.83,0,1.5.67,1.5,1.5v2.82h-9.36v-2.82c0-.83.67-1.5,1.5-1.5Z" transform="translate(2.75 -13.86) rotate(14.77)" style="fill:none; stroke:#57524d; stroke-linecap:round; stroke-linejoin:round; stroke-width:1.08px;"/><line x1="29.41" y1="35.31" x2="33.36" y2="20.34" style="fill:none; stroke:#59668d; stroke-linecap:round; stroke-linejoin:round; stroke-width:1.08px;"/><line x1="38.87" y1="19.19" x2="34.28" y2="36.59" style="fill:none; stroke:#59668d; stroke-linecap:round; stroke-linejoin:round; stroke-width:1.08px;"/><polyline points="36.11 9.9 38.31 1.55 43.18 2.83 41.62 8.75" style="fill:none; stroke:#59668d; stroke-linecap:round; stroke-linejoin:round; stroke-width:1.08px;"/><rect x="33.84" y="11.12" width="7.2" height="7.2" transform="translate(4.99 -9.06) rotate(14.77)" style="fill:none; stroke:#59668d; stroke-linecap:round; stroke-linejoin:round; stroke-width:1.08px;"/><path d="M44.38,39.25l-18.16-4.79c-2.65-.7-4.24-3.43-3.54-6.08l6.36-24.14C29.73,1.6,32.47,0,35.12.7l25.12,6.62" style="fill:none; stroke:#57524d; stroke-linecap:round; stroke-linejoin:round; stroke-width:1.08px;"/><path d="M68.61,14.13l6.37,8.12.91-3.46c.03-.1.08-.17.17-.22.09-.05.18-.06.28-.04l4.21,1.11c.1.03.17.08.22.17.05.09.06.18.04.28l-1.89,7.18,4.62,5.9c.06.08.09.17.08.27-.01.1-.06.18-.14.25l-3.46,2.71c-.08.06-.17.08-.27.07-.1-.01-.18-.06-.24-.13l-12.71-16.21-19.05,7.84c-.09.04-.19.04-.28,0-.09-.04-.16-.1-.2-.19l-1.67-4.06c-.04-.1-.04-.19,0-.28.04-.09.1-.16.19-.2l22.39-9.2c.08-.03.15-.04.23-.02.08.02.14.06.19.13Z" style="fill:none; fill-rule:evenodd; stroke:#57524d; stroke-linecap:round; stroke-linejoin:round; stroke-width:.95px;"/><path d="M66.35,22.7l10.33,13.16-2.94,11.15c-.03.1-.08.17-.17.22-.09.05-.18.06-.28.04l-7.39-1.95c-.1-.03-.17-.08-.22-.17-.05-.09-.07-.18-.04-.27l2.64-10.01-10.03-2.64-2.64,10.01c-.03.1-.08.17-.17.22-.09.05-.18.07-.27.04l-7.4-1.95c-.1-.03-.17-.08-.22-.17-.05-.09-.07-.18-.04-.27l2.94-11.15.15-.07s.01,0,.02,0l15.31-6.29h0s.25-.11.25-.11l.16.21h0Z" style="fill:none; fill-rule:evenodd; stroke:#57524d; stroke-linecap:round; stroke-linejoin:round; stroke-width:.95px;"/><path d="M18.58,63.14c4.37-1.32,8.56-2.76,10.69-3.94,7.17-3.98,15.14-7.97,15.14-7.97" style="fill:none; stroke:#57524d; stroke-linecap:round; stroke-linejoin:round; stroke-width:1.08px;"/><path d="M3.78,67.17s4.7-1.15,10.17-2.68" style="fill:none; stroke:#57524d; stroke-linecap:round; stroke-linejoin:round; stroke-width:1.08px;"/><path d="M21.79,56.38c2.76-.71,5.18-1.39,6.69-1.96,6.37-2.39,15.93-7.97,15.93-7.97" style="fill:none; stroke:#57524d; stroke-linecap:round; stroke-linejoin:round; stroke-width:1.08px;"/><path d="M2.18,60.79s7.07-1.44,14.1-3.08" style="fill:none; stroke:#57524d; stroke-linecap:round; stroke-linejoin:round; stroke-width:1.08px;"/><line x1="35.64" y1="56.01" x2="41.22" y2="59.2" style="fill:none; stroke:#57524d; stroke-linecap:round; stroke-linejoin:round; stroke-width:1.08px;"/><path d="M35.43,61.91c.26.82,1.18,3.69,2.13,7.14l1.45.68-.91,1.34c1.16,4.46,2.2,9.39,1.96,12.09,1.75-1.31,4.05-14.86-.17-20.87-1-1.42-5.1-2.37-4.46-.37Z" style="fill:#59668d;"/><path d="M43.43,63.39c.64.68,2.87,3.02,5.42,5.95l1.6-.18-.12,1.9c3.24,3.82,6.61,8.19,7.75,11.06.86-2.37-3.93-17.45-10.6-21-1.57-.84-5.6.65-4.05,2.28Z" style="fill:#59668d;"/><path d="M44.74,58.58c.92.12,4.13.54,7.96,1.2l1.13-1.15,1.1,1.55c4.92.92,10.29,2.2,12.98,3.71-.82-2.38-14.04-11.07-21.46-9.63-1.75.34-3.94,4.03-1.7,4.32Z" style="fill:#59668d;"/><path d="M83.08,116.33c-3.13,4.9-10.2,10.98-15.72,12.28-.04,0-.08.01-.12.01-.25,0-.47-.17-.53-.42-.07-.29.11-.58.4-.65,5.04-1.18,11.44-6.57,14.62-11.15-3.71.19-7.16.23-10.19.09-3.76,6.54-13.14,12.94-18.91,12.94-.24,0-.48-.01-.7-.03-.3-.03-.51-.29-.48-.59.03-.3.29-.52.59-.48,5.11.51,14.42-5.66,18.29-11.9-2.15-.14-4.05-.38-5.65-.73-.77,2.15-2.27,3.81-4.27,5.12-11.07-7.95-14.15-17.77-14.51-29.02-4.83.74-9.76,1.09-14.68,1.19,1.55,9.83,8.1,26.66,18.94,28.99.29.06.48.35.41.64-.05.25-.28.43-.53.43-.04,0-.08,0-.11-.01-11.39-2.44-18.24-19.93-19.8-30.03-3.7.04-7.39-.07-11.03-.28.63,5.84,2.98,13.24,6.12,19.18,4.04,7.66,8.94,12.14,13.79,12.62.3.03.51.29.48.59-.03.28-.26.49-.54.49-.02,0-.04,0-.05,0-11.68-1.16-19.72-21.86-20.89-32.95-3.28-.21-6.51-.5-9.66-.85,0,0,1.71,25.6,18.78,32.43,3.56,1.42,7.68,2.56,12.8,2.56,4.27,3.41,16.87,5.53,31.38,3.83,14.51-1.71,27.51-15.78,27.51-15.78-5.42.68-10.79,1.2-15.74,1.49Z" style="fill:#1a2272;"/><path d="M.54,89.22c12.8,2.56,33.29,1.71,45.24,0" style="fill:none; stroke:#57524d; stroke-linecap:round; stroke-linejoin:round; stroke-width:1.08px;"/><path d="M56.03,112.94c16.2,2.74,32.42,1.88,41.8-.68" style="fill:none; stroke:#57524d; stroke-linecap:round; stroke-linejoin:round; stroke-width:1.08px;"/><path d="M60.28,114.82s-6.83,12.8-29.02,9.39c-26.81-4.12-26.46-33.29-26.46-33.29" style="fill:none; stroke:#57524d; stroke-linecap:round; stroke-linejoin:round; stroke-width:1.08px;"/><path d="M56.58,118.9c-14.74-9.37-15.07-28.84-15.07-28.84" style="fill:none; stroke:#57524d; stroke-linecap:round; stroke-linejoin:round; stroke-width:1.08px;"/><path d="M94.42,113.11c-7.68,10.24-32.18,23.68-67.03,10.28" style="fill:none; stroke:#57524d; stroke-linecap:round; stroke-linejoin:round; stroke-width:1.08px;"/><polyline points="61.14 113.11 83.33 97.75 93.57 112.26" style="fill:none; stroke:#57524d; stroke-linecap:round; stroke-linejoin:round; stroke-width:1.08px;"/><polyline points="4.81 89.22 18.46 71.29 41.51 89.22" style="fill:none; stroke:#57524d; stroke-linecap:round; stroke-linejoin:round; stroke-width:1.08px;"/><line x1="18.89" y1="71.72" x2="17.18" y2="55.62" style="fill:none; stroke:#57524d; stroke-linecap:round; stroke-linejoin:round; stroke-width:1.08px;"/><line x1="85.04" y1="91.87" x2="83.33" y2="98.6" style="fill:none; stroke:#57524d; stroke-linecap:round; stroke-linejoin:round; stroke-width:1.08px;"/><rect x="74.87" y="66.98" width="31.84" height="11.56" transform="translate(-21.61 42.7) rotate(-23.74)" style="fill:#59668d;"/><path d="M101.48,61.01l-26.08,11.47-.56-9.78,19.96-8.78,6.67,7.09Z" style="fill:none; stroke:#57524d; stroke-linecap:round; stroke-linejoin:round; stroke-width:1px;"/><path d="M108.25,76.21l-6.33,2.78-1.21-2.74-13.4,5.89,1.21,2.74-6.33,2.78-1.21-2.74-2.36,1.04-5.41-12.31,30.79-13.54,5.41,12.31-2.37,1.04,1.21,2.74Z" style="fill:none; stroke:#57524d; stroke-linecap:round; stroke-linejoin:round; stroke-width:1px;"/><path d="M78.95,77.08c-.48-1.09.01-2.36,1.11-2.84s2.36.02,2.84,1.11-.01,2.36-1.1,2.84-2.36-.02-2.84-1.1Z" style="fill:#fff;"/><path d="M82.1,78.88c-1.47.65-3.19-.02-3.84-1.49s.02-3.19,1.49-3.84c1.47-.65,3.19.02,3.84,1.49.65,1.47-.02,3.19-1.49,3.84ZM80.36,74.93c-.71.31-1.03,1.14-.72,1.84s1.14,1.03,1.85.72,1.03-1.14.72-1.84c-.31-.71-1.14-1.03-1.84-.72Z" style="fill:#fff;"/><path d="M98.68,68.41c-.48-1.09.01-2.36,1.1-2.84,1.09-.48,2.36.02,2.84,1.11s-.01,2.36-1.11,2.84c-1.09.48-2.36-.02-2.84-1.11Z" style="fill:#fff;"/><path d="M101.82,70.2c-1.47.65-3.19-.02-3.84-1.49-.65-1.47.02-3.19,1.49-3.84s3.19.02,3.84,1.49-.02,3.19-1.49,3.84ZM100.09,66.26c-.71.31-1.03,1.14-.72,1.84s1.14,1.03,1.84.72,1.03-1.14.72-1.84c-.31-.71-1.14-1.03-1.85-.72Z" style="fill:#fff;"/><rect x="88.28" y="74.41" width="7.9" height="1.51" transform="translate(-22.45 43.48) rotate(-23.74)" style="fill:#fff;"/></g></svg>