<?xml version="1.0" encoding="UTF-8"?><svg id="uuid-163acace-f493-42fa-a00a-5f9352be0450" xmlns="http://www.w3.org/2000/svg" xmlns:xlink="http://www.w3.org/1999/xlink" viewBox="0 0 43.47 41.85"><defs><clipPath id="uuid-de026064-d6fd-4344-bb45-cfa3ed5f2437"><rect width="43.47" height="41.85" style="fill:none;"/></clipPath></defs><g id="uuid-0e5b3f7a-bd74-414f-8f5d-7a17902fa55e"><g style="clip-path:url(#uuid-de026064-d6fd-4344-bb45-cfa3ed5f2437);"><path d="M30.27,37c-.34,0-.65-.24-.73-.59l-1.87-8.42c-.09-.4.17-.81.57-.9.41-.09.8.17.9.57l1.87,8.42c.09.4-.17.81-.57.9-.06.01-.11.02-.16.02Z" style="fill:#575756;"/><path d="M36.13,32.81c-.16,0-.33-.05-.46-.16l-6.69-5.28c-.33-.26-.38-.73-.12-1.05.26-.33.73-.38,1.05-.12l6.69,5.28c.33.26.38.73.12,1.05-.15.19-.37.29-.59.29Z" style="fill:#575756;"/><path d="M26.69,41.8c-2.01,0-4.02-.35-5.91-1.06-2.24-.84-4.24-2.13-5.94-3.84-.82-.82-1.54-1.7-2.14-2.63-1.78-2.7-2.74-5.84-2.75-9.07,0-.2.08-.39.22-.53.14-.14.33-.22.53-.22h32c.2,0,.39.08.53.22.14.14.22.33.22.54-.03,3.63-1.2,7.06-3.38,9.92-.46.62-.96,1.2-1.53,1.78-1.99,1.99-4.46,3.45-7.13,4.23-1.53.45-3.12.67-4.71.67ZM11.46,25.95c.15,2.67,1,5.25,2.49,7.5.55.85,1.2,1.65,1.95,2.39,1.55,1.55,3.37,2.73,5.41,3.49,3.08,1.15,6.51,1.27,9.67.36,2.43-.7,4.68-2.03,6.49-3.85.52-.52.97-1.05,1.39-1.61,1.83-2.41,2.88-5.26,3.05-8.28H11.46Z" style="fill:#575756;"/><path d="M26.7,37.57c-1.43,0-2.85-.24-4.21-.73-1.76-.62-3.32-1.61-4.63-2.94-.58-.58-1.11-1.23-1.57-1.94-1.34-2.02-2.05-4.36-2.07-6.75,0-.2.08-.39.22-.53s.33-.22.53-.22h23.49c.41,0,.75.34.75.75,0,.06,0,.11-.02.17-.07,2.59-.91,5.06-2.45,7.14-.42.56-.81,1.01-1.2,1.39-1.41,1.41-3.16,2.47-5.04,3.07-1.22.4-2.51.6-3.8.6ZM15.75,25.95c.14,1.84.75,3.61,1.79,5.18.41.62.88,1.2,1.39,1.71,1.15,1.17,2.52,2.04,4.07,2.58,2.27.81,4.77.85,7.05.12,1.66-.52,3.2-1.46,4.44-2.7.33-.33.68-.74,1.06-1.23,1.23-1.66,1.95-3.6,2.12-5.65H15.75Z" style="fill:#575756;"/><path d="M26.71,29.06c-.3,0-.6-.03-.9-.1-.69-.15-1.36-.51-1.91-1.05-.18-.18-.33-.36-.47-.56-.42-.61-.66-1.33-.7-2.12-.01-.21.06-.41.21-.56.14-.15.34-.23.54-.23h6.44c.41,0,.75.34.75.75v.04c-.02.71-.25,1.45-.65,2.06-.13.21-.31.42-.5.62-.29.29-.61.53-.99.73-.56.29-1.18.44-1.8.44ZM24.38,25.94c.06.18.15.36.27.54.09.12.19.25.31.37.35.34.75.56,1.19.65.58.14,1.17.06,1.68-.2.24-.12.44-.27.62-.45.12-.12.22-.25.3-.37.11-.17.2-.34.27-.53h-4.64Z" style="fill:#575756;"/><path d="M16.9,32.3c-.25,0-.49-.12-.63-.34-.23-.35-.13-.81.22-1.04l7.14-4.63c.35-.23.81-.13,1.04.22s.13.81-.22,1.04l-7.14,4.63c-.13.08-.27.12-.41.12Z" style="fill:#575756;"/><path d="M22.74,36.88c-.1,0-.2-.02-.3-.06-.38-.16-.56-.61-.39-.99l3.4-7.87c.16-.38.61-.56.99-.39.38.16.56.61.39.99l-3.4,7.87c-.12.28-.4.45-.69.45Z" style="fill:#575756;"/><path d="M13.86,35.37c-.06,0-.12,0-.18-.02C5.64,33.4.03,26.24.03,17.96.03,8.07,8.06.03,17.94.03s17.91,8.04,17.91,17.91c0,2.66-.56,5.21-1.68,7.58-.18.37-.62.54-1,.36-.38-.18-.54-.62-.36-1,1.02-2.17,1.54-4.51,1.54-6.95,0-9.05-7.36-16.41-16.41-16.41S1.53,8.9,1.53,17.96c0,7.59,5.14,14.15,12.5,15.93.4.1.65.5.55.91-.08.34-.39.57-.73.57Z" style="fill:#575756;"/><path d="M20.89,10.27c-.06,0-.11,0-.17-.02-.4-.09-.66-.49-.57-.9.02-.13.19-1.36-1.87-2.04-2.94-.96-4.11-1.98-4.16-2.02-.31-.27-.34-.75-.06-1.06.27-.31.75-.34,1.05-.07.03.03,1.07.89,3.64,1.72,2.75.9,3.08,2.87,2.87,3.79-.08.35-.39.58-.73.58Z" style="fill:#575756;"/><path d="M14.65,10.27c-.34,0-.65-.23-.73-.58-.21-.92.12-2.9,2.87-3.79,2.6-.85,3.63-1.71,3.64-1.72.31-.27.79-.24,1.06.07.27.31.24.78-.07,1.05-.05.04-1.23,1.07-4.16,2.02-2.06.67-1.89,1.91-1.87,2.05.08.4-.18.8-.58.88-.05.01-.1.02-.16.02Z" style="fill:#575756;"/><path d="M7.3,22.03c-.23,0-.46-.1-.6-.3-3.99-5.38-.07-10.01-.03-10.06.27-.31.75-.34,1.06-.07.31.27.35.74.08,1.06h0c-.13.15-3.16,3.79.1,8.18.25.33.18.8-.16,1.05-.13.1-.29.15-.45.15Z" style="fill:#575756;"/><path d="M25.62,14.95h-.33c-.41,0-.75-.34-.75-.75s.34-.75.75-.75h.33c.41,0,.75.34.75.75s-.34.75-.75.75Z" style="fill:#575756;"/><path d="M27.21,17.71h-.22c-.41,0-.75-.34-.75-.75s.34-.75.75-.75h.22c.41,0,.75.34.75.75s-.34.75-.75.75Z" style="fill:#575756;"/></g></g></svg>