<?xml version="1.0" encoding="UTF-8"?><svg id="uuid-623f212f-2670-451c-a0bb-c04e8b793c0a" xmlns="http://www.w3.org/2000/svg" xmlns:xlink="http://www.w3.org/1999/xlink" viewBox="0 0 596.51 244.29"><defs><linearGradient id="uuid-b597876d-c805-4db8-a5c2-20d758d6f323" x1="119.97" y1="209.4" x2="119.97" y2="158.28" gradientUnits="userSpaceOnUse"><stop offset="0" stop-color="#cf9630"/><stop offset=".99" stop-color="#de4e0f"/></linearGradient><linearGradient id="uuid-e1e24635-d83a-43b9-ac8c-7fd066626125" x1="155.81" y1="196.62" x2="155.81" xlink:href="#uuid-b597876d-c805-4db8-a5c2-20d758d6f323"/><linearGradient id="uuid-b6ccbdf9-c9c6-427f-a829-1ba6e367dbed" x1="191.66" y1="81.6" x2="191.66" y2="158.28" gradientUnits="userSpaceOnUse"><stop offset=".14" stop-color="#0155bf"/><stop offset=".98" stop-color="#2f74cc"/></linearGradient><linearGradient id="uuid-313498a7-977c-40aa-9932-2def431ad927" x1="263.35" y1="158.28" x2="263.35" y2="94.38" xlink:href="#uuid-b6ccbdf9-c9c6-427f-a829-1ba6e367dbed"/><linearGradient id="uuid-1c0e3056-d397-43af-8141-0e18a1ebcbdc" x1="299.2" y1="17.71" x2="299.2" xlink:href="#uuid-b6ccbdf9-c9c6-427f-a829-1ba6e367dbed"/><linearGradient id="uuid-bd7b0db7-1506-4521-b333-a4841db8f537" x1="335.05" y1="196.62" x2="335.05" xlink:href="#uuid-b597876d-c805-4db8-a5c2-20d758d6f323"/><linearGradient id="uuid-b9d2c829-934c-485f-a9fa-1167eca309ad" x1="370.9" y1="119.94" x2="370.9" xlink:href="#uuid-b6ccbdf9-c9c6-427f-a829-1ba6e367dbed"/><linearGradient id="uuid-ba5f4833-4c20-451e-a540-af87c161aee6" x1="406.74" y1="158.28" x2="406.74" y2="107.16" xlink:href="#uuid-b6ccbdf9-c9c6-427f-a829-1ba6e367dbed"/><linearGradient id="uuid-5c41f143-ec47-45d2-9864-37a186664dff" x1="442.59" y1="68.82" x2="442.59" xlink:href="#uuid-b6ccbdf9-c9c6-427f-a829-1ba6e367dbed"/><linearGradient id="uuid-cbf80b94-bd60-4e08-886c-918f92cba2d8" x1="478.44" y1="234.95" x2="478.44" xlink:href="#uuid-b597876d-c805-4db8-a5c2-20d758d6f323"/><linearGradient id="uuid-f4aab6cf-0503-4ca7-bc32-56b4809cebd5" x1="514.28" y1="158.28" x2="514.28" y2="94.38" xlink:href="#uuid-b6ccbdf9-c9c6-427f-a829-1ba6e367dbed"/><linearGradient id="uuid-aa438ac9-e927-495a-b519-109953d0a39d" x1="550.13" y1="222.18" x2="550.13" xlink:href="#uuid-b597876d-c805-4db8-a5c2-20d758d6f323"/></defs><g id="uuid-52a39e1a-6686-4ed1-a347-493032735e5a"><line x1="30.35" y1="158.28" x2="596.15" y2="158.28" style="fill:none; stroke:#000; stroke-miterlimit:10; stroke-width:.73px;"/><line x1="30.35" y1="158.28" x2="30.35" y2="152.53" style="fill:none; stroke:#000; stroke-miterlimit:10; stroke-width:.73px;"/><line x1="102.04" y1="158.28" x2="102.04" y2="152.53" style="fill:none; stroke:#000; stroke-miterlimit:10; stroke-width:.73px;"/><line x1="137.89" y1="158.28" x2="137.89" y2="152.53" style="fill:none; stroke:#000; stroke-miterlimit:10; stroke-width:.73px;"/><line x1="173.74" y1="158.28" x2="173.74" y2="152.53" style="fill:none; stroke:#000; stroke-miterlimit:10; stroke-width:.73px;"/><line x1="209.58" y1="158.28" x2="209.58" y2="152.53" style="fill:none; stroke:#000; stroke-miterlimit:10; stroke-width:.73px;"/><line x1="245.43" y1="158.28" x2="245.43" y2="152.53" style="fill:none; stroke:#000; stroke-miterlimit:10; stroke-width:.73px;"/><line x1="281.28" y1="158.28" x2="281.28" y2="152.53" style="fill:none; stroke:#000; stroke-miterlimit:10; stroke-width:.73px;"/><line x1="317.12" y1="158.28" x2="317.12" y2="152.53" style="fill:none; stroke:#000; stroke-miterlimit:10; stroke-width:.73px;"/><line x1="352.97" y1="158.28" x2="352.97" y2="152.53" style="fill:none; stroke:#000; stroke-miterlimit:10; stroke-width:.73px;"/><line x1="388.82" y1="158.28" x2="388.82" y2="152.53" style="fill:none; stroke:#000; stroke-miterlimit:10; stroke-width:.73px;"/><line x1="424.67" y1="158.28" x2="424.67" y2="152.53" style="fill:none; stroke:#000; stroke-miterlimit:10; stroke-width:.73px;"/><line x1="460.51" y1="158.28" x2="460.51" y2="152.53" style="fill:none; stroke:#000; stroke-miterlimit:10; stroke-width:.73px;"/><line x1="496.36" y1="158.28" x2="496.36" y2="152.53" style="fill:none; stroke:#000; stroke-miterlimit:10; stroke-width:.73px;"/><line x1="532.21" y1="158.28" x2="532.21" y2="152.53" style="fill:none; stroke:#000; stroke-miterlimit:10; stroke-width:.73px;"/><line x1="568.05" y1="158.28" x2="568.05" y2="152.53" style="fill:none; stroke:#000; stroke-miterlimit:10; stroke-width:.73px;"/><line x1="568.3" y1="158.28" x2="568.3" y2="152.53" style="fill:none; stroke:#000; stroke-miterlimit:10; stroke-width:.73px;"/><line x1="596.15" y1="158.28" x2="596.15" y2="152.53" style="fill:none; stroke:#000; stroke-miterlimit:10; stroke-width:.73px;"/><text transform="translate(2.49 240.74)" style="fill:#575756; font-family:Rubik-Medium, Rubik; font-size:12.6px; font-weight:500;"><tspan x="0" y="0">-0.6</tspan></text><text transform="translate(.59 215.18)" style="fill:#575756; font-family:Rubik-Medium, Rubik; font-size:12.6px; font-weight:500;"><tspan x="0" y="0">-0.4</tspan></text><text transform="translate(0 189.62)" style="fill:#575756; font-family:Rubik-Medium, Rubik; font-size:12.6px; font-weight:500;"><tspan x="0" y="0">-0.2</tspan></text><text transform="translate(5.8 164.06)" style="fill:#575756; font-family:Rubik-Medium, Rubik; font-size:12.6px; font-weight:500;"><tspan x="0" y="0">0.0</tspan></text><text transform="translate(5.8 138.5)" style="fill:#575756; font-family:Rubik-Medium, Rubik; font-size:12.6px; font-weight:500;"><tspan x="0" y="0">0.2</tspan></text><text transform="translate(5.8 112.95)" style="fill:#575756; font-family:Rubik-Medium, Rubik; font-size:12.6px; font-weight:500;"><tspan x="0" y="0">0.4</tspan></text><text transform="translate(5.8 87.39)" style="fill:#575756; font-family:Rubik-Medium, Rubik; font-size:12.6px; font-weight:500;"><tspan x="0" y="0">0.6</tspan></text><text transform="translate(5.8 61.83)" style="fill:#575756; font-family:Rubik-Medium, Rubik; font-size:12.6px; font-weight:500;"><tspan x="0" y="0">0.8</tspan></text><text transform="translate(8.8 36.27)" style="fill:#575756; font-family:Rubik-Medium, Rubik; font-size:12.6px; font-weight:500;"><tspan x="0" y="0">1.0</tspan></text><text transform="translate(8.8 10.71)" style="fill:#575756; font-family:Rubik-Medium, Rubik; font-size:12.6px; font-weight:500;"><tspan x="0" y="0">1.2</tspan></text><line x1="30.35" y1="234.95" x2="30.35" y2="4.93" style="fill:none; stroke:#000; stroke-miterlimit:10; stroke-width:.73px;"/><line x1="30.35" y1="234.95" x2="45.58" y2="234.95" style="fill:none; stroke:#000; stroke-miterlimit:10; stroke-width:.73px;"/><line x1="30.35" y1="209.4" x2="45.58" y2="209.4" style="fill:none; stroke:#000; stroke-miterlimit:10; stroke-width:.73px;"/><line x1="30.35" y1="183.84" x2="45.58" y2="183.84" style="fill:none; stroke:#000; stroke-miterlimit:10; stroke-width:.73px;"/><line x1="30.35" y1="158.28" x2="45.58" y2="158.28" style="fill:none; stroke:#000; stroke-miterlimit:10; stroke-width:.73px;"/><line x1="30.35" y1="132.72" x2="45.58" y2="132.72" style="fill:none; stroke:#000; stroke-miterlimit:10; stroke-width:.73px;"/><line x1="30.35" y1="107.16" x2="45.58" y2="107.16" style="fill:none; stroke:#000; stroke-miterlimit:10; stroke-width:.73px;"/><line x1="30.35" y1="81.6" x2="45.58" y2="81.6" style="fill:none; stroke:#000; stroke-miterlimit:10; stroke-width:.73px;"/><line x1="30.35" y1="56.04" x2="45.58" y2="56.04" style="fill:none; stroke:#000; stroke-miterlimit:10; stroke-width:.73px;"/><line x1="30.35" y1="30.49" x2="45.58" y2="30.49" style="fill:none; stroke:#000; stroke-miterlimit:10; stroke-width:.73px;"/><line x1="30.35" y1="4.93" x2="45.58" y2="4.93" style="fill:none; stroke:#000; stroke-miterlimit:10; stroke-width:.73px;"/><rect x="107.06" y="158.28" width="25.81" height="51.12" style="fill:url(#uuid-b597876d-c805-4db8-a5c2-20d758d6f323);"/><rect x="142.91" y="158.28" width="25.81" height="38.34" style="fill:url(#uuid-e1e24635-d83a-43b9-ac8c-7fd066626125);"/><rect x="178.76" y="81.6" width="25.81" height="76.68" style="fill:url(#uuid-b6ccbdf9-c9c6-427f-a829-1ba6e367dbed);"/><rect x="250.45" y="94.38" width="25.81" height="63.9" style="fill:url(#uuid-313498a7-977c-40aa-9932-2def431ad927);"/><rect x="286.3" y="17.71" width="25.81" height="140.57" style="fill:url(#uuid-1c0e3056-d397-43af-8141-0e18a1ebcbdc);"/><rect x="322.14" y="158.28" width="25.81" height="38.34" style="fill:url(#uuid-bd7b0db7-1506-4521-b333-a4841db8f537);"/><rect x="357.99" y="119.94" width="25.81" height="38.34" style="fill:url(#uuid-b9d2c829-934c-485f-a9fa-1167eca309ad);"/><rect x="393.84" y="107.16" width="25.81" height="51.12" style="fill:url(#uuid-ba5f4833-4c20-451e-a540-af87c161aee6);"/><rect x="429.68" y="68.82" width="25.81" height="89.46" style="fill:url(#uuid-5c41f143-ec47-45d2-9864-37a186664dff);"/><rect x="465.53" y="158.28" width="25.81" height="76.68" style="fill:url(#uuid-cbf80b94-bd60-4e08-886c-918f92cba2d8);"/><rect x="501.38" y="94.38" width="25.81" height="63.9" style="fill:url(#uuid-f4aab6cf-0503-4ca7-bc32-56b4809cebd5);"/><rect x="537.22" y="158.28" width="25.81" height="63.9" style="fill:url(#uuid-aa438ac9-e927-495a-b519-109953d0a39d);"/><rect x="563.28" y="158.28" width="9.79" style="stroke:#000; stroke-miterlimit:10; stroke-width:.37px;"/><rect x="573.32" y="158.28" width="17.81" style="stroke:#000; stroke-miterlimit:10; stroke-width:.37px;"/></g></svg>