<?xml version="1.0" encoding="UTF-8"?><svg id="uuid-170dd5ac-dab0-4af4-aeec-46f914e03034" xmlns="http://www.w3.org/2000/svg" xmlns:xlink="http://www.w3.org/1999/xlink" viewBox="0 0 41.4 41.39"><defs><clipPath id="uuid-b8393b90-1c39-4053-b893-1b13f903c837"><rect x=".2" y=".2" width="41" height="41" style="fill:none;"/></clipPath></defs><g id="uuid-f7003ae6-412c-421f-95d5-e6b84cabd2e9"><g style="clip-path:url(#uuid-b8393b90-1c39-4053-b893-1b13f903c837);"><path d="M29.19,35.65H2.23c-.82,0-1.48.66-1.48,1.48v2.03c0,.82.66,1.48,1.48,1.48h26.96c.82,0,1.48-.66,1.48-1.48v-2.03c0-.82-.66-1.48-1.48-1.48Z" style="fill:none; stroke:#575756; stroke-linecap:round; stroke-linejoin:round; stroke-width:1.5px;"/><path d="M6.2.75h19.02c1.63,0,2.95,1.32,2.95,2.95v31.95H3.24V3.7c0-1.63,1.32-2.95,2.95-2.95Z" style="fill:none; stroke:#575756; stroke-linecap:round; stroke-linejoin:round; stroke-width:1.5px;"/><path d="M24.94,3.25H6.48c-.41,0-.74.33-.74.74v6.83c0,.41.33.74.74.74h18.47c.41,0,.74-.33.74-.74V3.98c0-.41-.33-.74-.74-.74Z" style="fill:none; stroke:#575756; stroke-linecap:round; stroke-linejoin:round; stroke-width:1.5px;"/><path d="M12.39,7.4l3.32-1.66v3.32l3.32-1.66" style="fill:none; stroke:#575756; stroke-linecap:round; stroke-linejoin:round; stroke-width:1.5px;"/><path d="M7.4,18.2c.92,0,1.66-.74,1.66-1.66s-.74-1.66-1.66-1.66-1.66.74-1.66,1.66.74,1.66,1.66,1.66Z" style="fill:none; stroke:#575756; stroke-linecap:round; stroke-linejoin:round; stroke-width:1.5px;"/><path d="M24.02,18.2c.92,0,1.66-.74,1.66-1.66s-.74-1.66-1.66-1.66-1.66.74-1.66,1.66.74,1.66,1.66,1.66Z" style="fill:none; stroke:#575756; stroke-linecap:round; stroke-linejoin:round; stroke-width:1.5px;"/><path d="M19.13,14.88h-6.83c-.41,0-.74.33-.74.74v1.85c0,.41.33.74.74.74h6.83c.41,0,.74-.33.74-.74v-1.85c0-.41-.33-.74-.74-.74Z" style="fill:none; stroke:#575756; stroke-linecap:round; stroke-linejoin:round; stroke-width:1.5px;"/><path d="M28.17,21.53H3.24v8.31h24.93v-8.31Z" style="fill:none; stroke:#575756; stroke-linecap:round; stroke-linejoin:round; stroke-width:1.5px;"/><path d="M19.13,24.02h-6.83c-.41,0-.74.33-.74.74v1.85c0,.41.33.74.74.74h6.83c.41,0,.74-.33.74-.74v-1.85c0-.41-.33-.74-.74-.74Z" style="fill:none; stroke:#575756; stroke-linecap:round; stroke-linejoin:round; stroke-width:1.5px;"/><path d="M23.19,25.68h4.99" style="fill:none; stroke:#575756; stroke-linecap:round; stroke-linejoin:round; stroke-width:1.5px;"/><path d="M3.24,25.68h4.99" style="fill:none; stroke:#575756; stroke-linecap:round; stroke-linejoin:round; stroke-width:1.5px;"/><path d="M6.56,32.33h19.12" style="fill:none; stroke:#575756; stroke-linecap:round; stroke-linejoin:round; stroke-width:1.5px;"/><path d="M28.18,5.74h2.59c.41,0,.74.33.74.74v6.83c0,.41-.33.74-.74.74h-2.59V5.74Z" style="fill:none; stroke:#575756; stroke-linecap:round; stroke-linejoin:round; stroke-width:1.5px;"/><path d="M38.98,18.64v9.54c0,1.84-1.48,3.32-3.32,3.32h-7.48v-3.32h6.65c.46,0,.83-.38.83-.83v-10.17" style="fill:none; stroke:#575756; stroke-linecap:round; stroke-linejoin:round; stroke-width:1.5px;"/><path d="M31.5,7.73l2.03.38c.41.07.77.28,1.03.59l5.69,6.67c.57.66.5,1.62-.13,2.22l-.94.88c-.77.72-2.05.62-2.7-.21l-2.96-3.89c-.17-.21-.39-.4-.65-.52l-1.38-.65" style="fill:none; stroke:#575756; stroke-linecap:round; stroke-linejoin:round; stroke-width:1.5px;"/><path d="M38.49,13.31l-3.38,3.16" style="fill:none; stroke:#575756; stroke-linecap:round; stroke-linejoin:round; stroke-width:1.5px;"/></g></g></svg>