<?xml version="1.0" encoding="UTF-8"?><svg id="uuid-1cd0cbf2-00af-48de-8179-b0241bc7c5a1" xmlns="http://www.w3.org/2000/svg" xmlns:xlink="http://www.w3.org/1999/xlink" viewBox="0 0 40 40.01"><defs><clipPath id="uuid-1dfe13e1-d6a7-4cbd-986e-82586cf83993"><rect y="0" width="40" height="40" style="fill:none;"/></clipPath></defs><g id="uuid-90be9e95-9374-4f21-a74d-dc8b81d0382d"><g style="clip-path:url(#uuid-1dfe13e1-d6a7-4cbd-986e-82586cf83993);"><path d="M27.71,36.26c.12,0,.25-.04.36-.11l3.58-2.51c.23-.16.32-.44.24-.7l-.64-2.07,1.02-.72c.41-.29.68-.72.77-1.21.09-.49-.03-.99-.31-1.4-.29-.41-.72-.68-1.21-.77-.49-.09-.99.02-1.4.31l-.04.03-.19-.62.91-.63c.41-.29.68-.72.77-1.21.09-.49-.03-.99-.31-1.4-.29-.41-.72-.68-1.21-.77-.46-.08-.93.02-1.32.27l-.2-.63,8.98-6.29c.06-.04.11-.09.14-.14.27-.36,2.59-3.59,1.29-5.44-1.2-1.72-4.58-.92-5.41-.69l-1.57-.27c-1.81-.51-3.08.38-4.21,1.17l-4.01,2.81c-.28.2-.35.59-.16.87.2.28.59.35.87.16l4.01-2.81c1-.7,1.74-1.15,2.63-1.08l-2.35,1.65c-.84.59-1.06,1.76-.46,2.61.36.52.95.8,1.54.8.37,0,.74-.11,1.07-.34l6.47-4.53c.24.09.42.21.55.38.6.86-.52,2.94-1.21,3.9l-20.66,14.46c-.68.48-1.51.66-2.34.52-.34-.06-.66.17-.73.51s.17.66.51.73c.26.04.51.07.77.07.89,0,1.76-.27,2.5-.79l5.15-3.61,5.27,9.21c.09.15.24.26.41.3.04.01.09.01.14.01h.01ZM30.17,14.07c-.28.2-.68.13-.87-.16-.2-.28-.13-.68.16-.87l3.37-2.36.61.11c.09.02.19.01.29-.02.4-.12.99-.25,1.6-.32l-5.16,3.61h0ZM30.83,28.11c.14-.09.3-.13.47-.11.16.03.31.12.41.26.09.14.13.3.11.47-.02.17-.12.31-.26.41l-.69.49-.39-1.25.37-.26h0ZM29.35,23.81c.28-.2.67-.13.87.16.2.28.13.68-.16.87l-.58.41-.39-1.25.26-.18h0ZM22.93,26.01l4.51-3.16,3.13,10.02-2.65,1.86-4.99-8.71h0Z" style="fill:#575756;"/><path d="M21.11,12.03c-.29-.41-.72-.68-1.21-.77-.49-.09-.99.03-1.4.31l-1.43,1-1.48-.58c.52-.63.59-1.56.1-2.27-.59-.85-1.76-1.05-2.61-.46l-1.61,1.13-3.19-1.24c-.19-.07-.41-.05-.59.07l-4.09,2.87c-.17.12-.27.32-.27.53s.11.4.29.51l13.72,8.7c.1.06.22.1.34.1.12,0,.25-.04.36-.11l7.17-5.02c.19-.13.29-.36.26-.59-.02-.23-.18-.43-.39-.51l-3.95-1.54c.14-.22.25-.46.3-.72.09-.49-.02-.99-.31-1.4h0ZM13.78,10.29c.28-.2.68-.13.87.16.2.28.13.68-.16.87l-.24.17-1.4-.54.92-.64h0ZM17.66,20.54l-12.58-7.97,3.06-2.14,15.39,6.01-5.87,4.11h0ZM18.46,13.12l.75-.52c.14-.09.3-.13.47-.11.16.03.31.12.41.26.09.14.13.3.11.47-.03.16-.12.31-.26.41l-.07.05-1.4-.54h0Z" style="fill:#575756;"/><path d="M13.12,26.77c-.59-.84-1.76-1.06-2.61-.46l-.3.21.46-2.61,3.44-2.41c.28-.2.35-.59.16-.87-.2-.28-.59-.35-.87-.16l-3.47,2.43-4.64-.39c-.15-.01-.29.02-.41.11L.27,25.86c-.19.13-.29.36-.26.59.03.23.18.43.39.51l5.91,2.31-.92.64c-.41.29-.68.72-.77,1.21-.09.49.02.99.31,1.4.29.41.72.68,1.21.77.11.02.22.03.33.03.38,0,.75-.12,1.07-.34l5.12-3.59c.84-.59,1.06-1.76.46-2.61h-.01ZM1.94,26.21l3.47-2.42,3.96.33-.61,3.42-1.22.86-5.6-2.18ZM11.94,28.36l-5.12,3.59c-.14.09-.3.13-.47.11-.16-.03-.31-.12-.41-.26-.09-.14-.13-.3-.11-.47.03-.16.12-.31.26-.41l5.12-3.59c.11-.08.23-.11.36-.11.2,0,.39.09.51.27.09.14.13.3.11.47-.03.16-.12.31-.26.41h0Z" style="fill:#575756;"/><path d="M.68,8.76h6.2c.34,0,.62-.28.62-.62s-.28-.62-.62-.62H1.25c0-2.34,2.16-4.22,4.6-3.65.29.07.59-.08.71-.36.6-1.36,1.94-2.24,3.43-2.24,1.63,0,3.06,1.04,3.57,2.59.06.17.19.32.36.39s.37.06.53-.03c.54-.29,1.16-.46,1.79-.46,2.07,0,3.75,1.68,3.75,3.75h-4.38c-.34,0-.62.28-.62.62s.28.62.62.62h4.95c.31,0,.58-.23.62-.54.04-.27.06-.49.06-.71,0-2.76-2.24-5-5-5-.6,0-1.19.11-1.75.32-.82-1.71-2.56-2.82-4.5-2.82-1.81,0-3.47.98-4.36,2.54C2.61,2.14,0,4.54,0,7.51c0,.22.02.44.06.71.04.31.31.54.62.54Z" style="fill:#575756;"/><path d="M13.12,8.76c.34,0,.62-.28.62-.62s-.28-.62-.62-.62h-3.75c-.34,0-.62.28-.62.62s.28.62.62.62h3.75Z" style="fill:#575756;"/><path d="M37.46,36.42c-.23-1.51-1.53-2.66-3.09-2.66-1.25,0-2.38.76-2.86,1.89-2.18-.17-4.01,1.59-4.01,3.74,0,.34.28.62.62.62h11.25c.34,0,.62-.28.62-.62,0-2.29-1.78-2.8-2.54-2.96ZM28.83,38.76c.28-1.08,1.26-1.88,2.42-1.88.17,0,.35.02.55.07.16.04.33,0,.48-.08.14-.09.24-.23.27-.39.19-.85.96-1.47,1.83-1.47,1.03,0,1.88.84,1.88,1.88,0,.56.54.67.83.73.69.14,1.36.36,1.59,1.14h-9.84,0Z" style="fill:#575756;"/></g></g></svg>