<?xml version="1.0" encoding="UTF-8"?><svg id="uuid-a4928bfa-0ee4-4127-abb1-1537d6304c2a" xmlns="http://www.w3.org/2000/svg" viewBox="0 0 54.37 40.07"><g id="uuid-5e8aec39-4c18-4867-a3f9-c3f364f22d05"><path d="M47.09,40.07h-5.1c-.92,0-1.66-.74-1.66-1.66v-4.08c0-.35.29-.64.64-.64h7.15c.35,0,.64.29.64.64v4.08c0,.92-.74,1.66-1.66,1.66ZM41.6,34.97v3.45c0,.21.17.38.38.38h5.1c.21,0,.38-.17.38-.38v-3.45h-5.87Z" style="fill:#575756;"/><path d="M12.38,40.07h-5.1c-.92,0-1.66-.74-1.66-1.66v-4.08c0-.35.29-.64.64-.64h7.15c.35,0,.64.29.64.64v4.08c0,.92-.74,1.66-1.66,1.66ZM6.89,34.97v3.45c0,.21.17.38.38.38h5.1c.21,0,.38-.17.38-.38v-3.45h-5.87Z" style="fill:#575756;"/><path d="M45.56,13.53H8.81c-.21,0-.4-.1-.52-.27-.12-.17-.15-.38-.09-.57l3.39-10.16c.5-1.51,1.92-2.53,3.51-2.53h24.17c1.6,0,3.01,1.02,3.51,2.53l3.39,10.16c.06.19.03.41-.09.57-.12.17-.31.27-.52.27ZM9.69,12.25h34.98l-3.11-9.32c-.33-.99-1.26-1.66-2.3-1.66H15.1c-1.04,0-1.97.67-2.3,1.66l-3.11,9.32Z" style="fill:#575756;"/><path d="M5.74,11.49H1.66c-.92,0-1.66-.74-1.66-1.66v-3.06c0-.92.74-1.66,1.66-1.66h3.06c.92,0,1.66.74,1.66,1.66v4.08c0,.35-.29.64-.64.64ZM1.66,6.38c-.21,0-.38.17-.38.38v3.06c0,.21.17.38.38.38h3.45v-3.45c0-.21-.17-.38-.38-.38H1.66Z" style="fill:#575756;"/><path d="M8.8,13.53c-.12,0-.24-.03-.35-.11l-3.06-2.04c-.29-.2-.37-.59-.18-.89.2-.29.59-.37.89-.18l3.06,2.04c.29.2.37.59.18.89-.12.18-.33.28-.53.28Z" style="fill:#575756;"/><path d="M52.71,11.49h-4.08c-.35,0-.64-.29-.64-.64v-4.08c0-.92.74-1.66,1.66-1.66h3.06c.92,0,1.66.74,1.66,1.66v3.06c0,.92-.74,1.66-1.66,1.66ZM49.26,10.21h3.45c.21,0,.38-.17.38-.38v-3.06c0-.21-.17-.38-.38-.38h-3.06c-.21,0-.38.17-.38.38v3.45Z" style="fill:#575756;"/><path d="M45.56,13.53c-.21,0-.41-.1-.53-.28-.2-.29-.12-.69.18-.89l3.06-2.04c.29-.19.69-.11.89.18.2.29.12.69-.18.89l-3.06,2.04c-.11.07-.23.11-.35.11Z" style="fill:#575756;"/><path d="M44.54,30.88c-2.04,0-3.7-1.66-3.7-3.7s1.66-3.7,3.7-3.7,3.7,1.66,3.7,3.7-1.66,3.7-3.7,3.7ZM44.54,24.76c-1.34,0-2.42,1.09-2.42,2.42s1.09,2.42,2.42,2.42,2.42-1.09,2.42-2.42-1.09-2.42-2.42-2.42Z" style="fill:#575756;"/><path d="M9.83,30.88c-2.04,0-3.7-1.66-3.7-3.7s1.66-3.7,3.7-3.7,3.7,1.66,3.7,3.7-1.66,3.7-3.7,3.7ZM9.83,24.76c-1.34,0-2.42,1.09-2.42,2.42s1.09,2.42,2.42,2.42,2.42-1.09,2.42-2.42-1.09-2.42-2.42-2.42Z" style="fill:#575756;"/><path d="M48.62,34.97H5.74c-2.04,0-3.7-1.66-3.7-3.7v-8.17c0-2.04,1.66-3.7,3.7-3.7h42.88c2.04,0,3.7,1.66,3.7,3.7v8.17c0,2.04-1.66,3.7-3.7,3.7ZM5.74,20.67c-1.34,0-2.42,1.09-2.42,2.42v8.17c0,1.34,1.09,2.42,2.42,2.42h42.88c1.34,0,2.42-1.09,2.42-2.42v-8.17c0-1.34-1.09-2.42-2.42-2.42H5.74Z" style="fill:#575756;"/><path d="M48.62,34.97H5.74c-2.04,0-3.7-1.66-3.7-3.7v-8.17c0-2.04,1.66-3.7,3.7-3.7h42.88c2.04,0,3.7,1.66,3.7,3.7v8.17c0,2.04-1.66,3.7-3.7,3.7ZM5.74,20.67c-1.34,0-2.42,1.09-2.42,2.42v8.17c0,1.34,1.09,2.42,2.42,2.42h42.88c1.34,0,2.42-1.09,2.42-2.42v-8.17c0-1.34-1.09-2.42-2.42-2.42H5.74Z" style="fill:#575756;"/><path d="M34.33,30.88h-14.29c-2.04,0-3.7-1.66-3.7-3.7s1.66-3.7,3.7-3.7h14.29c2.04,0,3.7,1.66,3.7,3.7s-1.66,3.7-3.7,3.7ZM20.04,24.76c-1.34,0-2.42,1.09-2.42,2.42s1.09,2.42,2.42,2.42h14.29c1.34,0,2.42-1.09,2.42-2.42s-1.09-2.42-2.42-2.42h-14.29Z" style="fill:#575756;"/><path d="M48.62,34.97H5.74c-2.04,0-3.7-1.66-3.7-3.7v-8.96c0-1.61.58-3.18,1.63-4.4l4.65-5.43c.12-.14.3-.22.48-.22h36.75c.19,0,.36.08.48.22l4.65,5.43c1.05,1.23,1.63,2.79,1.63,4.4v8.96c0,2.04-1.66,3.7-3.7,3.7ZM9.1,13.53l-4.46,5.2c-.85.99-1.32,2.26-1.32,3.57v8.96c0,1.34,1.09,2.42,2.42,2.42h42.88c1.34,0,2.42-1.09,2.42-2.42v-8.96c0-1.31-.47-2.58-1.32-3.57l-4.46-5.2H9.1Z" style="fill:#575756;"/></g></svg>